<svg xmlns="http://www.w3.org/2000/svg" width="238.292" height="172.52" viewBox="0 0 238.292 172.52">
  <g id="Group_11" data-name="Group 11" transform="translate(-152.82 -227.303)">
    <g id="Group_3" data-name="Group 3" transform="translate(154.498 389.293)">
      <path id="Path_1" data-name="Path 1" d="M154.074,352.39c.809-.087,1.031-.16,1.1-.705a20.7,20.7,0,0,0,.087-2.221v-2.469a14.9,14.9,0,0,0-.132-2.925c-.06-.192-.163-.236-.97-.251-.116,0-.146-.045-.146-.163a1.144,1.144,0,0,1,.118-.367c.293,0,1.483.059,1.985.059.38,0,1.747-.029,1.983-.029a4.653,4.653,0,0,1,2.838.852,2.715,2.715,0,0,1,1.06,2.044,2.858,2.858,0,0,1-1,2.145,5.066,5.066,0,0,1-3.413,1.134h-.646c-.074,0-.118.014-.118.278,0,.53.029,1.119.073,1.6.031.412.1.693.515.794.133.029.456.1.956.192.1.013.118.028.118.1a2.15,2.15,0,0,1-.043.414c-1.324-.017-1.942-.031-2.263-.031-.781,0-1.429.046-1.943.059-.1,0-.116-.028-.132-.118Zm6.073-6.1a2.251,2.251,0,0,0-2.323-2.442,1.376,1.376,0,0,0-.735.163.447.447,0,0,0-.161.366c-.031.559-.074,3.383-.074,4.133,0,.191.043.265.161.308a1.8,1.8,0,0,0,.75.132,2.979,2.979,0,0,0,1.015-.192,2.525,2.525,0,0,0,1.367-2.454Z" transform="translate(-154.017 -342.655)" fill="#fff"/>
      <path id="Path_2" data-name="Path 2" d="M161.22,343.484c-.017-.076.045-.1.13-.119l2.016-.043c.838-.059,1.218-.074,1.719-.074a4.519,4.519,0,0,1,2.721.691,2.357,2.357,0,0,1,1.043,1.823,2.551,2.551,0,0,1-1.516,2.162.267.267,0,0,0-.087.279,8.2,8.2,0,0,0,.986,2.1,6.029,6.029,0,0,0,2.469,2.322c.163.074.163.177.132.353a.208.208,0,0,1-.161.206,4.729,4.729,0,0,1-3.294-1.367,7.928,7.928,0,0,1-1.44-2.294,1.118,1.118,0,0,0-1.235-.809,2.834,2.834,0,0,0-.6.045c-.073.013-.132.146-.132.251,0,1.232.013,2.027.043,2.675.015.248.059.321.132.381a6.306,6.306,0,0,0,1.161.294,1,1,0,0,1-.073.47c-.015.029-.087.029-.236.029s-1.589-.013-2.294-.013c-.5,0-.794.043-1.087.043-.161,0-.222,0-.236-.043a1.22,1.22,0,0,1-.074-.458,1.767,1.767,0,0,0,.823-.323,10.2,10.2,0,0,0,.208-3.1v-1.807c0-.852-.029-1.911-.046-2.456-.013-.529-.057-.544-1-.808Zm5.735,2.41a1.98,1.98,0,0,0-1.869-2.1,1.677,1.677,0,0,0-.778.147.365.365,0,0,0-.251.293,22.982,22.982,0,0,0-.087,2.382c-.015,1.457,0,1.471.1,1.514a2.814,2.814,0,0,0,.587.031,2.154,2.154,0,0,0,1.795-.663,2.625,2.625,0,0,0,.5-1.587Z" transform="translate(-151.122 -342.672)" fill="#fff"/>
      <path id="Path_3" data-name="Path 3" d="M174.137,343.143a5.021,5.021,0,0,1,5.13,4.778,5.192,5.192,0,0,1-1.719,3.955,4.956,4.956,0,0,1-3.117,1.294,5.9,5.9,0,0,1-4.352-1.81,5.3,5.3,0,0,1-1.251-3.337,4.718,4.718,0,0,1,1.6-3.5,5.517,5.517,0,0,1,3.688-1.381Zm-.412.544a2.614,2.614,0,0,0-2,1.028,4.8,4.8,0,0,0-.913,3.162,5.084,5.084,0,0,0,1.192,3.41,3.391,3.391,0,0,0,2.618,1.294c1.265,0,2.691-1.4,2.691-4.028a5.465,5.465,0,0,0-1.192-3.749,3.231,3.231,0,0,0-2.382-1.116Z" transform="translate(-148.061 -342.714)" fill="#fff"/>
      <path id="Path_4" data-name="Path 4" d="M185.721,343.143c.132,0,.147.043.22.234.442,1.338.75,2.131,1.265,3.5.485,1.322,1.544,3.821,1.764,4.321.367.766.573,1.117,1.426,1.294.015-.029-.073.442-.177.47-1.425-.013-1.7-.028-2.19-.028-.471,0-1.043.043-1.192.043-.059,0-.087-.015-.1-.043-.028-.09-.146-.383-.118-.414.648-.175.735-.264.691-.645a12.168,12.168,0,0,0-.66-1.912c-.09-.219-.206-.324-.294-.324-.693,0-2.176,0-2.912.045-.236.014-.307.118-.412.367a7.035,7.035,0,0,0-.529,1.736c0,.367.191.5.882.66.09.059-.043.443-.118.47-.852-.014-1.69-.014-2-.014-.25,0-.485.014-.543,0-.076,0-.09-.013-.1-.059-.045-.072-.133-.381-.073-.412.719-.191.9-.719,1.234-1.425.353-.75,2.088-4.764,2.883-6.675.132-.353.248-.676.322-.868a.34.34,0,0,1,.118-.177,1.6,1.6,0,0,1,.6-.146Zm-1.854,5.791c.147,0,.412.015.913.015.543,0,.837,0,1.22-.015.132,0,.222-.13.206-.191-.545-1.587-.852-2.426-1.161-3.219-.045-.09-.135-.09-.161-.015-.561,1.251-.75,1.736-1.339,3.25-.029.074.1.175.308.175Z" transform="translate(-143.358 -342.714)" fill="#fff"/>
      <path id="Path_5" data-name="Path 5" d="M188.916,343.484c-.014-.076.045-.1.135-.119l2.013-.043c.838-.059,1.221-.074,1.72-.074a4.511,4.511,0,0,1,2.719.691,2.351,2.351,0,0,1,1.045,1.823,2.549,2.549,0,0,1-1.514,2.162.267.267,0,0,0-.087.279,8.2,8.2,0,0,0,.986,2.1,6.02,6.02,0,0,0,2.469,2.322c.161.074.161.177.13.353a.2.2,0,0,1-.161.206,4.726,4.726,0,0,1-3.292-1.367,7.96,7.96,0,0,1-1.441-2.294,1.116,1.116,0,0,0-1.235-.809,2.826,2.826,0,0,0-.6.045c-.073.013-.132.146-.132.251,0,1.232.015,2.027.043,2.675.015.248.06.321.133.381a6.245,6.245,0,0,0,1.161.294,1.006,1.006,0,0,1-.074.47c-.013.029-.087.029-.236.029s-1.587-.013-2.291-.013c-.5,0-.8.043-1.089.043-.163,0-.22,0-.236-.043a1.278,1.278,0,0,1-.074-.458,1.766,1.766,0,0,0,.824-.323,10.171,10.171,0,0,0,.206-3.1v-1.807c0-.852-.031-1.911-.043-2.456-.015-.529-.059-.544-1-.808Zm5.736,2.41a1.979,1.979,0,0,0-1.868-2.1,1.67,1.67,0,0,0-.778.147.369.369,0,0,0-.252.293c-.059.442-.072,1.1-.087,2.382-.015,1.457,0,1.471.1,1.514a2.807,2.807,0,0,0,.586.031,2.153,2.153,0,0,0,1.795-.663,2.625,2.625,0,0,0,.5-1.587Z" transform="translate(-139.985 -342.672)" fill="#fff"/>
      <path id="Path_6" data-name="Path 6" d="M198.646,352.6a5.568,5.568,0,0,0,.868-.147c.339-.06.559-.191.618-.544a28.5,28.5,0,0,0,.146-3.177v-1.5a17.509,17.509,0,0,0-.059-3.09h-.837a6.43,6.43,0,0,0-2.337.324c-.147.1-.25.4-.485,1.074,0,.043-.088.029-.178,0-.132-.088-.309-.206-.337-.324.177-.44.485-1.147.866-2.368a.514.514,0,0,1,.293.015c.119.045.119.045.135.118.043.324.087.412.189.456a3.764,3.764,0,0,0,.679.073c.409.015,1.425.015,2.792.015,1.632,0,2.721-.015,3.425-.074a3.136,3.136,0,0,0,.721-.072.681.681,0,0,0,.355-.412c.042-.059.058-.074.1-.074a1.083,1.083,0,0,1,.369.1c.042.029.057.073.014.2a6.831,6.831,0,0,0-.369,2.176c0,.074-.028.118-.177.118a1.209,1.209,0,0,1-.278-.029.137.137,0,0,1-.1-.118c0-.073.028-.6.028-.764,0-.132-.059-.219-.222-.308a9.307,9.307,0,0,0-1.924-.133h-.679c-.147,0-.25.105-.264.31,0,.265-.031,1.031-.031,2.911v1.5a21.486,21.486,0,0,0,.1,2.912.766.766,0,0,0,.366.559,5.308,5.308,0,0,0,1.223.234c.088,0,.1.031.088.1l-.059.309c-.015.057-.029.09-.206.09-.4,0-1.485-.046-2.22-.046-.97,0-2.25.059-2.37.059-.1,0-.16-.045-.175-.118Z" transform="translate(-137.117 -342.837)" fill="#fff"/>
      <path id="Path_7" data-name="Path 7" d="M208.312,347.767c.646,0,1.059-.014,1.384-.029.808-.059.924-.191,1.189-1,.046-.073.383-.1.544-.073-.043.381-.118,1.131-.118,1.631.015.544.045.854.09,1.339a1.06,1.06,0,0,1-.341.045.174.174,0,0,1-.2-.09c-.045-.13-.149-.454-.208-.617-.1-.352-.336-.516-.866-.544-.353-.028-.735-.028-1.4-.028a5.084,5.084,0,0,0-.766.028.186.186,0,0,0-.161.132,10.278,10.278,0,0,0-.1,1.942c0,.955,0,1.249.119,1.424.2.294.941.339,1.72.339,1.5,0,2.382-.234,2.9-1.852a1.236,1.236,0,0,1,.414,0c.043.014.043.014.043.118a6.838,6.838,0,0,1-.485,2.249c-.043.087-.088.119-.163.119-.1,0-.219,0-.69-.015-.414-.017-1.413-.031-2.677-.031-1.4,0-2.7.059-3.81.088-.057-.029-.057-.307-.029-.412,0-.073.029-.087.059-.1.705-.147.824-.207.838-.47.014-.208.1-1.207.1-2.59v-3.1a10.053,10.053,0,0,0-.1-2.013c-.014-.118-.029-.22-.177-.251s-.381-.1-.838-.2c-.028-.015-.042-.015-.028-.074l.043-.324c0-.059,0-.087.074-.087h.485c.454,0,1.116.043,2.161.043h1.265c1.147,0,2.06-.088,2.926-.088.192,0,.279.014.352.073.059.074.119.135.074.383a9.253,9.253,0,0,0-.161,1.927c-.457.014-.485-.029-.515-.132-.355-1.147-.575-1.575-1.441-1.575h-.736c-.866,0-1.294.029-1.455.043-.25.031-.265.279-.265.5,0,1.043,0,2.015.015,3,0,.178.073.28.163.28Z" transform="translate(-133.7 -342.663)" fill="#fff"/>
      <path id="Path_8" data-name="Path 8" d="M218.722,347.767c.646,0,1.059-.014,1.382-.029.809-.059.927-.191,1.192-1,.045-.073.383-.1.541-.073-.042.381-.115,1.131-.115,1.631.014.544.043.854.088,1.339a1.056,1.056,0,0,1-.339.045.178.178,0,0,1-.206-.09c-.043-.13-.146-.454-.2-.617-.1-.352-.338-.516-.868-.544-.353-.028-.736-.028-1.4-.028a5.041,5.041,0,0,0-.764.028.189.189,0,0,0-.161.132,10.354,10.354,0,0,0-.1,1.942c0,.955,0,1.249.118,1.424.2.294.942.339,1.719.339,1.5,0,2.384-.234,2.9-1.852a1.219,1.219,0,0,1,.411,0c.043.014.043.014.043.118a6.766,6.766,0,0,1-.485,2.249c-.043.087-.087.119-.163.119-.1,0-.22,0-.69-.015-.411-.017-1.412-.031-2.675-.031-1.4,0-2.706.059-3.808.088-.06-.029-.06-.307-.031-.412,0-.073.031-.087.058-.1.708-.147.824-.207.84-.47.014-.208.1-1.207.1-2.59v-3.1a10.051,10.051,0,0,0-.1-2.013c-.015-.118-.029-.22-.177-.251s-.381-.1-.838-.2c-.029-.015-.043-.015-.029-.074L215,343.4c0-.059,0-.087.073-.087h.485c.456,0,1.117.043,2.162.043h1.265c1.146,0,2.058-.088,2.926-.088a.527.527,0,0,1,.353.073c.059.074.118.135.074.383a9.1,9.1,0,0,0-.164,1.927c-.454.014-.485-.029-.513-.132-.355-1.147-.575-1.575-1.441-1.575h-.736c-.868,0-1.294.029-1.455.043-.25.031-.264.279-.264.5,0,1.043,0,2.015.014,3,0,.178.073.28.161.28Z" transform="translate(-129.515 -342.663)" fill="#fff"/>
      <path id="Path_9" data-name="Path 9" d="M224.467,352.6a5.645,5.645,0,0,0,.869-.147c.336-.06.558-.191.617-.544a28.505,28.505,0,0,0,.146-3.177v-1.5a17.923,17.923,0,0,0-.058-3.09H225.2a6.433,6.433,0,0,0-2.339.324c-.146.1-.25.4-.485,1.074,0,.043-.088.029-.178,0-.13-.088-.306-.206-.335-.324.175-.44.484-1.147.866-2.368a.514.514,0,0,1,.293.015c.118.045.118.045.133.118.043.324.088.412.192.456a3.74,3.74,0,0,0,.676.073c.411.015,1.426.015,2.793.015,1.632,0,2.72-.015,3.427-.074a3.131,3.131,0,0,0,.719-.072.674.674,0,0,0,.352-.412c.046-.059.06-.074.105-.074a1.093,1.093,0,0,1,.367.1c.045.029.058.073.015.2a6.716,6.716,0,0,0-.369,2.176c0,.074-.029.118-.178.118a1.218,1.218,0,0,1-.278-.029.137.137,0,0,1-.1-.118c0-.073.028-.6.028-.764,0-.132-.057-.219-.22-.308a9.314,9.314,0,0,0-1.925-.133h-.677c-.147,0-.251.105-.265.31,0,.265-.029,1.031-.029,2.911v1.5a21.935,21.935,0,0,0,.1,2.912.765.765,0,0,0,.369.559,5.25,5.25,0,0,0,1.221.234c.087,0,.1.031.087.1l-.057.309c-.014.057-.029.09-.207.09-.4,0-1.485-.046-2.22-.046-.972,0-2.25.059-2.37.059-.1,0-.158-.045-.174-.118Z" transform="translate(-126.735 -342.837)" fill="#fff"/>
      <path id="Path_10" data-name="Path 10" d="M233.924,353.278a.261.261,0,0,1-.175-.073c-.043-.045-.087-.192-.1-.545a21.307,21.307,0,0,0-.236-2.294c-.028-.1-.015-.118.06-.132a2.446,2.446,0,0,1,.293-.045c.09,0,.147.031.192.163a3.093,3.093,0,0,0,.426.882,3.343,3.343,0,0,0,2.409,1.381,1.835,1.835,0,0,0,1.952-1.866,1.5,1.5,0,0,0-.7-1.235,8.192,8.192,0,0,0-1.527-.78,5.486,5.486,0,0,1-2.235-1.41,2.475,2.475,0,0,1-.543-1.589A2.28,2.28,0,0,1,235,343.676a5.006,5.006,0,0,1,2.234-.471c.411,0,1.056.059,1.319.09.163.028.3.028.457.043.132.014.25-.074.352-.279a4.1,4.1,0,0,1,.457.013,10.032,10.032,0,0,0,.132,2.37.179.179,0,0,1-.043.2,2.665,2.665,0,0,1-.353.206c-.029.014-.09-.015-.118-.1a2.719,2.719,0,0,0-.851-1.425,2.874,2.874,0,0,0-1.677-.545,1.507,1.507,0,0,0-1.513,1.485,1.451,1.451,0,0,0,.414,1.06,4.076,4.076,0,0,0,1.586.941,7.174,7.174,0,0,1,2.22,1.221,2.333,2.333,0,0,1,.822,1.88,2.53,2.53,0,0,1-1.353,2.278,6.556,6.556,0,0,1-2.525.561,8.347,8.347,0,0,1-1.823-.22.366.366,0,0,0-.264,0,1.049,1.049,0,0,0-.265.2.409.409,0,0,1-.265.09Z" transform="translate(-122.098 -342.747)" fill="#fff"/>
      <path id="Path_11" data-name="Path 11" d="M242.371,352.6a5.578,5.578,0,0,0,.866-.147c.337-.06.559-.191.618-.544a28.922,28.922,0,0,0,.146-3.177v-1.5a17.509,17.509,0,0,0-.059-3.09H243.1a6.416,6.416,0,0,0-2.337.324c-.147.1-.251.4-.485,1.074,0,.043-.088.029-.177,0-.133-.088-.31-.206-.336-.324.175-.44.484-1.147.866-2.368a.519.519,0,0,1,.294.015c.116.045.116.045.13.118.045.324.09.412.192.456a3.743,3.743,0,0,0,.677.073c.411.015,1.426.015,2.794.015,1.631,0,2.719-.015,3.425-.074a3.142,3.142,0,0,0,.719-.072.688.688,0,0,0,.353-.412c.045-.059.059-.074.1-.074a1.1,1.1,0,0,1,.37.1c.043.029.059.073.014.2a6.682,6.682,0,0,0-.366,2.176c0,.074-.032.118-.178.118a1.235,1.235,0,0,1-.28-.029.14.14,0,0,1-.1-.118c0-.073.031-.6.031-.764,0-.132-.059-.219-.22-.308a9.351,9.351,0,0,0-1.928-.133h-.674c-.146,0-.251.105-.265.31,0,.265-.031,1.031-.031,2.911v1.5a21.763,21.763,0,0,0,.1,2.912.759.759,0,0,0,.367.559,5.25,5.25,0,0,0,1.221.234c.088,0,.1.031.088.1l-.059.309c-.014.057-.029.09-.206.09-.4,0-1.485-.046-2.22-.046-.97,0-2.25.059-2.368.059-.1,0-.163-.045-.177-.118Z" transform="translate(-119.536 -342.837)" fill="#fff"/>
      <path id="Path_12" data-name="Path 12" d="M258.382,343.79a3.093,3.093,0,0,1-.485.118c-.133.028-.206.1-.265.35a33.656,33.656,0,0,0-.222,3.809,5.638,5.638,0,0,1-.808,3.368,4.094,4.094,0,0,1-3.308,1.677,4.241,4.241,0,0,1-3.016-1.015,3.616,3.616,0,0,1-1.043-2.838c-.014-.854-.014-1.663.031-2.9.059-1.9.043-2.086-.074-2.263-.133-.163-.338-.22-.84-.324l.017-.307c.015-.149.073-.163.265-.163.322,0,1.263.059,1.575.043.7-.015,1.38-.059,2.1-.059.073,0,.1,0,.1.043a1.18,1.18,0,0,1-.043.457c-.764.132-1.176.163-1.266.586a9.974,9.974,0,0,0-.1,1.368c-.015.823-.059,2.28-.059,3.354a2.768,2.768,0,0,0,.972,2.4,3.213,3.213,0,0,0,2.044.6,2.307,2.307,0,0,0,1.985-.869,5.313,5.313,0,0,0,.747-3.219c0-1.513,0-2.911-.087-3.573-.059-.515-.251-.558-1.426-.558-.045,0-.118-.088-.1-.208.059-.072.147-.175.208-.264.027-.043.116-.059.234-.059h1.324c.544,0,1.324-.029,1.646-.029.074,0,.074.014.031.163Z" transform="translate(-116.084 -342.655)" fill="#fff"/>
      <path id="Path_13" data-name="Path 13" d="M267.21,348.105a4.4,4.4,0,0,1-1.4,3.073,5.714,5.714,0,0,1-2.515,1.485,7.618,7.618,0,0,1-2.353.25c-.778,0-2.22-.059-2.5-.059-.468,0-1,0-1.336.014a2.379,2.379,0,0,1,0-.47c.617-.234.781-.321.794-.587.074-1.147.057-3.633.057-5.411,0-1.53-.013-1.868-.027-2.044-.015-.206-.135-.369-.824-.47-.043-.017-.057-.088-.057-.31l-.017-.22c.545,0,1.237-.029,2.046-.043.97-.015,1.483-.045,2.218-.045a6.535,6.535,0,0,1,4.309,1.352,4.557,4.557,0,0,1,1.6,3.47Zm-6.131-4.278a2.854,2.854,0,0,0-1.2.264.371.371,0,0,0-.135.293c-.042.559-.09,1.942-.09,3.148a21.555,21.555,0,0,0,.224,4.428.256.256,0,0,0,.2.219,2.862,2.862,0,0,0,1.059.2,4.125,4.125,0,0,0,4.073-4.425,4.06,4.06,0,0,0-1.426-3.233,4.286,4.286,0,0,0-2.689-.9Z" transform="translate(-112.594 -342.663)" fill="#fff"/>
      <path id="Path_14" data-name="Path 14" d="M270.424,343.791c-1.28.149-1.382.25-1.441.529a13.644,13.644,0,0,0-.1,2.382v2.5a22.954,22.954,0,0,0,.116,2.6c.031.279.118.381.324.412.119.028.487.073.75.132.076,0,.118.028.118.073a2.56,2.56,0,0,1-.087.457c-1.1-.032-1.722-.046-2.323-.046-1,0-1.751.059-1.793.059a.185.185,0,0,1-.178-.118,1.918,1.918,0,0,1-.057-.4c.9-.059,1.2-.132,1.307-.543a11.39,11.39,0,0,0,.149-2.588v-3.086c0-1.973-.015-2.163-.531-2.252a4.608,4.608,0,0,0-.688-.06c-.088,0-.119-.027-.119-.1a.647.647,0,0,1,.074-.265c.06-.1.072-.132.118-.132a3.4,3.4,0,0,1,.439-.015c.209,0,.62.029,1.751.015.736,0,1.661-.031,1.823-.031.192,0,.207.015.22.059Z" transform="translate(-109.091 -342.642)" fill="#fff"/>
      <path id="Path_15" data-name="Path 15" d="M275.742,343.143a5.022,5.022,0,0,1,5.129,4.778,5.184,5.184,0,0,1-1.72,3.955,4.956,4.956,0,0,1-3.114,1.294,5.908,5.908,0,0,1-4.355-1.81,5.3,5.3,0,0,1-1.249-3.337,4.722,4.722,0,0,1,1.6-3.5,5.522,5.522,0,0,1,3.692-1.381Zm-.412.544a2.615,2.615,0,0,0-2,1.028,4.8,4.8,0,0,0-.91,3.162,5.084,5.084,0,0,0,1.19,3.41,3.388,3.388,0,0,0,2.616,1.294c1.265,0,2.691-1.4,2.691-4.028a5.47,5.47,0,0,0-1.189-3.749,3.242,3.242,0,0,0-2.384-1.116Z" transform="translate(-107.206 -342.714)" fill="#fff"/>
      <path id="Path_16" data-name="Path 16" d="M282.986,353.278a.264.264,0,0,1-.177-.073c-.043-.045-.09-.192-.1-.545a21.662,21.662,0,0,0-.236-2.294c-.031-.1-.013-.118.059-.132a2.446,2.446,0,0,1,.3-.045c.086,0,.146.031.188.163a3.176,3.176,0,0,0,.426.882,3.352,3.352,0,0,0,2.414,1.381,1.836,1.836,0,0,0,1.953-1.866,1.5,1.5,0,0,0-.707-1.235,8.093,8.093,0,0,0-1.527-.78,5.475,5.475,0,0,1-2.235-1.41,2.468,2.468,0,0,1-.545-1.589,2.28,2.28,0,0,1,1.266-2.058,5.008,5.008,0,0,1,2.235-.471c.411,0,1.057.059,1.324.09.16.028.293.028.456.043.132.014.251-.074.352-.279a4.042,4.042,0,0,1,.456.013,10.1,10.1,0,0,0,.132,2.37.179.179,0,0,1-.043.2,2.483,2.483,0,0,1-.352.206c-.031.014-.09-.015-.118-.1a2.714,2.714,0,0,0-.854-1.425,2.866,2.866,0,0,0-1.675-.545,1.506,1.506,0,0,0-1.514,1.485,1.443,1.443,0,0,0,.411,1.06,4.082,4.082,0,0,0,1.589.941,7.15,7.15,0,0,1,2.221,1.221,2.332,2.332,0,0,1,.82,1.88,2.53,2.53,0,0,1-1.35,2.278,6.58,6.58,0,0,1-2.528.561,8.338,8.338,0,0,1-1.824-.22.365.365,0,0,0-.264,0,1,1,0,0,0-.266.2.4.4,0,0,1-.264.09Z" transform="translate(-102.371 -342.747)" fill="#fff"/>
      <path id="Path_17" data-name="Path 17" d="M299.111,343.79a3.194,3.194,0,0,1-.484.118c-.135.028-.209.1-.268.35a33.1,33.1,0,0,0-.22,3.809,5.648,5.648,0,0,1-.808,3.368,4.1,4.1,0,0,1-3.31,1.677,4.228,4.228,0,0,1-3.012-1.015,3.612,3.612,0,0,1-1.045-2.838c-.015-.854-.015-1.663.028-2.9.059-1.9.045-2.086-.073-2.263s-.339-.22-.837-.324l.014-.307c.013-.149.073-.163.264-.163.325,0,1.266.059,1.575.043.705-.015,1.384-.059,2.1-.059.074,0,.1,0,.1.043a1.237,1.237,0,0,1-.043.457c-.767.132-1.178.163-1.265.586a9.124,9.124,0,0,0-.1,1.368c-.015.823-.059,2.28-.059,3.354a2.77,2.77,0,0,0,.969,2.4,3.217,3.217,0,0,0,2.043.6,2.3,2.3,0,0,0,1.985-.869,5.3,5.3,0,0,0,.75-3.219c0-1.513,0-2.911-.087-3.573-.059-.515-.25-.558-1.427-.558-.043,0-.116-.088-.1-.208a2.955,2.955,0,0,0,.206-.264c.032-.043.118-.059.236-.059h1.325c.543,0,1.322-.029,1.646-.029.073,0,.073.014.029.163Z" transform="translate(-99.707 -342.655)" fill="#fff"/>
      <path id="Path_18" data-name="Path 18" d="M300.636,352.93c-.969-.057-1.868-.057-2.807-.042-.088,0-.119-.015-.146-.076a.9.9,0,0,1-.031-.442c.588-.072.882-.2.972-.837.116-.984.144-2.294.2-3.793l.119-3.221c.014-.53-.248-.632-1.221-.735a2.132,2.132,0,0,1,.133-.383.165.165,0,0,1,.163-.088c.219,0,1.087.029,1.53.029.336,0,.674-.015.88-.015a2.419,2.419,0,0,0,.2.738c.663,1.44,2.267,4.264,3.251,5.939.042.087.118.1.177-.015.97-1.852,2.234-4.323,2.97-5.941a2.952,2.952,0,0,0,.146-.705c1.133,0,2.235-.043,2.678-.043a2.061,2.061,0,0,1,.014.515c-.838.088-1.015.175-1.031.6-.029.587-.029,1.455.015,3.366.014,1.455,0,2.881.029,3.308.073,1,.073,1.06.986,1.22.043,0,.072.251.072.383,0,.088-.028.118-.086.118h-1.384c-.4,0-1.483.029-2.117.1v-.339c.015-.118.029-.175.105-.191.6-.16.63-.191.705-.705.043-.4.028-1.178.146-6.514,0-.147-.1-.088-.133,0-.177.279-1.66,3.47-2.337,4.926-.721,1.516-.97,2.134-1.045,2.266-.177.366-.219.484-.4.484-.057,0-.133-.043-.191-.161-.073-.118-.426-.837-.778-1.575-1.353-2.881-2.37-4.879-2.912-6.028-.014,1.324-.029,3.354,0,4.955.015,1.059.031,1.647.072,1.914.091.262.268.365.767.454.175.029.237.058.25.133Z" transform="translate(-96.268 -342.65)" fill="#fff"/>
      <path id="Path_19" data-name="Path 19" d="M318.012,343.79a3.11,3.11,0,0,1-.487.118c-.132.028-.2.1-.264.35a33.266,33.266,0,0,0-.222,3.809,5.658,5.658,0,0,1-.809,3.368,4.09,4.09,0,0,1-3.308,1.677,4.234,4.234,0,0,1-3.015-1.015,3.616,3.616,0,0,1-1.043-2.838c-.014-.854-.014-1.663.029-2.9.059-1.9.046-2.086-.073-2.263s-.338-.22-.84-.324l.015-.307c.015-.149.073-.163.266-.163.321,0,1.263.059,1.575.043.7-.015,1.381-.059,2.1-.059.073,0,.1,0,.1.043a1.206,1.206,0,0,1-.043.457c-.766.132-1.176.163-1.265.586a9.668,9.668,0,0,0-.1,1.368c-.015.823-.058,2.28-.058,3.354a2.77,2.77,0,0,0,.969,2.4,3.216,3.216,0,0,0,2.044.6,2.3,2.3,0,0,0,1.985-.869,5.3,5.3,0,0,0,.75-3.219c0-1.513,0-2.911-.09-3.573-.059-.515-.25-.558-1.425-.558-.045,0-.116-.088-.105-.208a3.263,3.263,0,0,0,.209-.264c.028-.043.116-.059.234-.059h1.325c.543,0,1.322-.029,1.646-.029.073,0,.073.014.027.163Z" transform="translate(-92.107 -342.655)" fill="#fff"/>
      <path id="Path_20" data-name="Path 20" d="M317.047,353.278a.262.262,0,0,1-.177-.073c-.043-.045-.088-.192-.1-.545a20.95,20.95,0,0,0-.234-2.294c-.03-.1-.013-.118.059-.132a2.486,2.486,0,0,1,.3-.045c.087,0,.146.031.189.163a3.107,3.107,0,0,0,.428.882,3.343,3.343,0,0,0,2.41,1.381,1.837,1.837,0,0,0,1.956-1.866,1.5,1.5,0,0,0-.705-1.235,8.2,8.2,0,0,0-1.53-.78,5.486,5.486,0,0,1-2.235-1.41,2.475,2.475,0,0,1-.543-1.589,2.28,2.28,0,0,1,1.263-2.058,5.01,5.01,0,0,1,2.236-.471c.411,0,1.057.059,1.322.09.16.028.293.028.456.043.13.014.25-.074.353-.279a4.083,4.083,0,0,1,.456.013,10.027,10.027,0,0,0,.132,2.37.179.179,0,0,1-.043.2,2.58,2.58,0,0,1-.353.206c-.029.014-.088-.015-.118-.1a2.712,2.712,0,0,0-.852-1.425,2.87,2.87,0,0,0-1.677-.545,1.506,1.506,0,0,0-1.514,1.485,1.449,1.449,0,0,0,.411,1.06,4.06,4.06,0,0,0,1.589.941,7.134,7.134,0,0,1,2.221,1.221,2.328,2.328,0,0,1,.822,1.88,2.531,2.531,0,0,1-1.352,2.278,6.574,6.574,0,0,1-2.528.561,8.326,8.326,0,0,1-1.823-.22.369.369,0,0,0-.265,0,1,1,0,0,0-.265.2.4.4,0,0,1-.265.09Z" transform="translate(-88.675 -342.747)" fill="#fff"/>
    </g>
    <g id="Group_4" data-name="Group 4" transform="translate(152.82 345.638)">
      <path id="Path_21" data-name="Path 21" d="M153.016,341.883c2.695-.245,3.43-.491,3.674-2.353a64.809,64.809,0,0,0,.294-7.252V323.95c0-5.437-.049-8.33-.391-9.6-.1-.587-.442-.784-3.184-.833-.442,0-.589-.147-.589-.589a3.531,3.531,0,0,1,.344-1.224c1.029,0,5.535.2,7.2.2,1.274,0,5.782-.1,6.567-.1a15.4,15.4,0,0,1,9.407,2.842,9.038,9.038,0,0,1,3.526,6.809,9.472,9.472,0,0,1-3.331,7.155c-2.744,2.693-7.6,3.772-11.318,3.772h-2.058c-.294,0-.391.049-.391.784,0,1.911.1,3.773.245,5.292.1,1.371.342,2.351,1.713,2.695.442.1,1.422.344,3.187.686.293,0,.341.05.341.344a4.93,4.93,0,0,1-.147,1.42c-4.41-.049-6.319-.1-7.4-.1-2.793,0-5.195.147-7.1.2-.44,0-.491-.147-.491-.44ZM173.1,321.7c0-1.716-.587-8.035-7.35-8.035a4.113,4.113,0,0,0-2.106.538,1.5,1.5,0,0,0-.54,1.276c-.146,1.859-.245,11.12-.245,13.521,0,.637.149.931.491,1.078a6.414,6.414,0,0,0,2.546.44,8.7,8.7,0,0,0,2.991-.637c2.988-1.322,4.213-4.654,4.213-8.132Z" transform="translate(-152.82 -311.701)" fill="#fff"/>
      <path id="Path_22" data-name="Path 22" d="M185.493,314.3c.426,0,.467.084.68.722,1.275,3.737,2.166,6.071,3.652,10.022,1.443,3.821,4.331,10.744,5.01,12.231,1.1,2.336,1.741,3.439,4.2,3.95.043-.086-.254,1.359-.594,1.4-4.331-.042-5.139-.086-6.583-.086-1.359,0-3.184.128-3.65.128-.171,0-.257-.042-.3-.171-.086-.21-.467-1.1-.383-1.189,1.741-.467,2-.721,2-1.57,0-1.018-1.572-5.011-1.783-5.478-.341-.806-.68-1.061-.934-1.061-1.528,0-6.117-.042-8.069.126-.722.043-.934.384-1.232,1.148-.425,1.1-1.443,3.439-1.443,4.714,0,1.061.638,1.485,2.633,1.91.339.086-.128,1.359-.341,1.4-2.675-.042-5.1-.042-5.945-.042-.764,0-1.4.042-1.57,0-.212,0-.255-.041-.3-.168-.126-.213-.465-1.1-.255-1.19,2.21-.595,2.72-2.377,3.654-4.373.976-2.081,6.03-13.546,8.237-18.9.383-.976.722-2,.976-2.506a.92.92,0,0,1,.384-.593,5.275,5.275,0,0,1,1.911-.425Zm-5.436,16.731c.467,0,1.231.043,2.464.043,1.36,0,2.124,0,3.187-.043.423,0,.721-.381.679-.509-1.53-4.672-2.421-7.048-3.142-8.875-.129-.255-.384-.3-.47-.128-1.443,3.186-1.994,4.63-3.693,9-.086.21.339.509.934.509Z" transform="translate(-145.822 -310.656)" fill="#fff"/>
      <path id="Path_23" data-name="Path 23" d="M201.041,330.746c0,6.157.087,7.346.129,8.153.042.722.17,1.061.764,1.273a11.536,11.536,0,0,0,3.4.3c3.1,0,5.774-.381,7.006-2.463a11.445,11.445,0,0,0,.974-2.716c.086-.257.17-.3.383-.3a3.562,3.562,0,0,1,1.063.383.521.521,0,0,1,.212.551,51.84,51.84,0,0,0-1.4,5.69c-.087.552-.257.68-.766.766-.425.043-.89.043-2.632.043s-3.779-.129-11.466-.129c-2.591,0-4.8.213-5.9.3-.213,0-.426,0-.467-.17-.086-.257-.426-1.021-.341-1.276,2-.551,3.354-1.018,3.567-2.163a33.967,33.967,0,0,0,.212-5.82v-1.826l-3.864,2.633-.806-.934a.509.509,0,0,1,0-.594l4.67-3.4V324.8a46.908,46.908,0,0,0-.3-7.175c-.128-.722-.425-1.063-3.695-1.1-.084,0-.294-.128-.126-.551l.339-.85a.921.921,0,0,1,.255-.3c1.953.043,4.076.086,6.073.086,2.336,0,4.5-.126,6.157-.212.213.043.384,1.147.341,1.359-1.486.3-3.312.509-3.568,1.911a60.2,60.2,0,0,0-.255,7.517c1.785-.977,4.757-3.058,4.927-3.058.3,0,1.1.977,1.147,1.273l-6.032,4.035Z" transform="translate(-137.464 -310.498)" fill="#fff"/>
      <path id="Path_24" data-name="Path 24" d="M222.9,314.3c.423,0,.467.084.679.722,1.273,3.737,2.165,6.071,3.652,10.022,1.444,3.821,4.33,10.744,5.01,12.231,1.1,2.336,1.741,3.439,4.2,3.95.042-.086-.254,1.359-.6,1.4-4.331-.042-5.137-.086-6.582-.086-1.357,0-3.184.128-3.652.128-.168,0-.255-.042-.3-.171-.083-.21-.467-1.1-.381-1.189,1.741-.467,2-.721,2-1.57,0-1.018-1.572-5.011-1.783-5.478-.338-.806-.679-1.061-.934-1.061-1.528,0-6.115-.042-8.069.126-.722.043-.934.384-1.232,1.148-.423,1.1-1.443,3.439-1.443,4.714,0,1.061.637,1.485,2.633,1.91.339.086-.128,1.359-.341,1.4-2.674-.042-5.094-.042-5.943-.042-.766,0-1.4.042-1.573,0-.21,0-.254-.041-.3-.168-.128-.213-.467-1.1-.254-1.19,2.206-.595,2.716-2.377,3.651-4.373.977-2.081,6.029-13.546,8.237-18.9.383-.976.722-2,.979-2.506a.907.907,0,0,1,.38-.593,5.3,5.3,0,0,1,1.912-.425Zm-5.436,16.731c.467,0,1.231.043,2.461.043,1.359,0,2.126,0,3.187-.043.425,0,.721-.381.679-.509-1.528-4.672-2.419-7.048-3.142-8.875-.128-.255-.383-.3-.467-.128-1.444,3.186-2,4.63-3.7,9-.083.21.341.509.934.509Z" transform="translate(-130.782 -310.656)" fill="#fff"/>
      <path id="Path_25" data-name="Path 25" d="M226.754,328.95a14.231,14.231,0,0,1,3.439-9.68c2.25-2.506,5.775-3.781,8.917-4.461a24.786,24.786,0,0,1,5.477-.509,16.3,16.3,0,0,1,4.8.6,3.34,3.34,0,0,0,1.572-.383c.17-.043.381-.043,1.018.212.339.084.339.213.3.383a16.5,16.5,0,0,0-.723,7.218c0,.086-.126.17-.593.17-.766.043-1.021-.126-1.1-.339a25.051,25.051,0,0,0-.935-2.548,4.524,4.524,0,0,0-1.273-2A7.946,7.946,0,0,0,242.759,316a8.758,8.758,0,0,0-6.832,3.481,15.041,15.041,0,0,0-2.845,9.47c0,4.841,2.632,12.357,10.356,12.357,2.848,0,5.011-1.953,6.2-3.312a13.269,13.269,0,0,0,1.528-2.59c.042-.086.212-.171.679.254.51.3.595.425.552.808a17.3,17.3,0,0,1-1.953,5.606c-.3.381-.425.381-.892.423-1.231,0-3.525.723-6.538.723-11.717,0-16.262-7.643-16.262-14.227Z" transform="translate(-123.091 -310.656)" fill="#fff"/>
      <path id="Path_26" data-name="Path 26" d="M253.486,341.883c2.695-.245,3.431-.491,3.675-2.353a64.96,64.96,0,0,0,.293-7.252V323.95c0-5.437-.048-8.33-.391-9.6-.1-.587-.44-.784-3.183-.833-.443,0-.59-.147-.59-.589a3.531,3.531,0,0,1,.344-1.224c1.029,0,5.536.2,7.2.2,1.274,0,5.784-.1,6.565-.1a15.4,15.4,0,0,1,9.408,2.842,9.035,9.035,0,0,1,3.528,6.809A9.472,9.472,0,0,1,277,328.6c-2.744,2.693-7.6,3.772-11.316,3.772h-2.057c-.3,0-.394.049-.394.784,0,1.911.1,3.773.245,5.292.1,1.371.342,2.351,1.715,2.695.442.1,1.422.344,3.186.686.293,0,.342.05.342.344a5.044,5.044,0,0,1-.146,1.42c-4.412-.049-6.322-.1-7.4-.1-2.792,0-5.193.147-7.1.2-.442,0-.491-.147-.491-.44ZM273.574,321.7c0-1.716-.587-8.035-7.348-8.035a4.115,4.115,0,0,0-2.107.538c-.342.245-.488.587-.54,1.276-.147,1.859-.244,11.12-.244,13.521,0,.637.147.931.489,1.078a6.416,6.416,0,0,0,2.548.44,8.706,8.706,0,0,0,2.991-.637c2.988-1.322,4.212-4.654,4.212-8.132Z" transform="translate(-112.421 -311.701)" fill="#fff"/>
      <path id="Path_27" data-name="Path 27" d="M285.965,314.3c.425,0,.467.084.677.722,1.276,3.737,2.168,6.071,3.654,10.022,1.443,3.821,4.331,10.744,5.01,12.231,1.1,2.336,1.741,3.439,4.2,3.95.042-.086-.254,1.359-.594,1.4-4.333-.042-5.139-.086-6.582-.086-1.359,0-3.187.128-3.654.128-.171,0-.252-.042-.3-.171-.084-.21-.467-1.1-.381-1.189,1.74-.467,2-.721,2-1.57,0-1.018-1.57-5.011-1.785-5.478-.341-.806-.679-1.061-.934-1.061-1.528,0-6.116-.042-8.068.126-.724.043-.935.384-1.231,1.148-.425,1.1-1.446,3.439-1.446,4.714,0,1.061.638,1.485,2.633,1.91.341.086-.128,1.359-.339,1.4-2.675-.042-5.1-.042-5.945-.042-.764,0-1.4.042-1.57,0-.213,0-.255-.041-.3-.168-.129-.213-.468-1.1-.255-1.19,2.208-.595,2.717-2.377,3.652-4.373.977-2.081,6.029-13.546,8.239-18.9.38-.976.721-2,.976-2.506a.908.908,0,0,1,.381-.593,5.275,5.275,0,0,1,1.911-.425Zm-5.437,16.731c.467,0,1.231.043,2.465.043,1.359,0,2.121,0,3.181-.043.428,0,.725-.381.683-.509-1.528-4.672-2.423-7.048-3.143-8.875-.128-.255-.383-.3-.468-.128-1.443,3.186-1.992,4.63-3.693,9-.086.21.341.509.935.509Z" transform="translate(-105.423 -310.656)" fill="#fff"/>
      <path id="Path_28" data-name="Path 28" d="M293.472,343.582a.931.931,0,0,1-.55-.17c-.086-.084-.213-.467-.255-1.614a61.619,61.619,0,0,0-.721-6.837c-.043-.3,0-.339.212-.381a5.641,5.641,0,0,1,.808-.086.569.569,0,0,1,.593.425,9.382,9.382,0,0,0,1.232,2.464c1.614,2.208,4.586,4.16,6.921,4.16a5.051,5.051,0,0,0,5.35-5.137,4.377,4.377,0,0,0-2.124-3.567,24.489,24.489,0,0,0-3.99-2.123c-2.972-1.275-4.969-2.421-6.5-4.248a7.163,7.163,0,0,1-1.572-4.712,6.651,6.651,0,0,1,3.654-5.9,14.969,14.969,0,0,1,6.581-1.36c1.189,0,2.929.171,3.695.255a13.528,13.528,0,0,0,1.36.129c.425.041.767-.17,1.019-.85a12.224,12.224,0,0,1,1.446.042,28.35,28.35,0,0,0,.422,6.963c.086.384,0,.512-.168.638a10.593,10.593,0,0,1-1.019.639c-.087.041-.3-.045-.383-.342-.722-1.953-1.275-3.142-2.635-4.16a8.32,8.32,0,0,0-4.712-1.572,4.167,4.167,0,0,0-3.992,4.032,3.971,3.971,0,0,0,1.19,3.017,11.98,11.98,0,0,0,4.244,2.632c2.89,1.231,5.1,2.294,6.457,3.609a6.974,6.974,0,0,1,2.419,5.564,7.262,7.262,0,0,1-3.989,6.581,19.107,19.107,0,0,1-7.433,1.657,22.424,22.424,0,0,1-5.137-.637,1.275,1.275,0,0,0-.808,0,2.414,2.414,0,0,0-.722.637,1.327,1.327,0,0,1-.85.254Z" transform="translate(-96.883 -310.766)" fill="#fff"/>
      <path id="Path_29" data-name="Path 29" d="M309.678,343.582a.931.931,0,0,1-.552-.17c-.084-.084-.213-.467-.254-1.614a61.344,61.344,0,0,0-.723-6.837c-.042-.3,0-.339.213-.381a5.641,5.641,0,0,1,.808-.086.571.571,0,0,1,.594.425,9.328,9.328,0,0,0,1.231,2.464c1.614,2.208,4.585,4.16,6.921,4.16a5.051,5.051,0,0,0,5.35-5.137,4.376,4.376,0,0,0-2.123-3.567,24.63,24.63,0,0,0-3.993-2.123c-2.971-1.275-4.966-2.421-6.495-4.248a7.148,7.148,0,0,1-1.573-4.712,6.65,6.65,0,0,1,3.652-5.9,14.969,14.969,0,0,1,6.581-1.36c1.19,0,2.93.171,3.7.255a13.528,13.528,0,0,0,1.36.129c.425.041.764-.17,1.017-.85a12.225,12.225,0,0,1,1.447.042,28.423,28.423,0,0,0,.422,6.963c.084.384,0,.512-.17.638a10.083,10.083,0,0,1-1.018.639c-.086.041-.3-.045-.383-.342-.722-1.953-1.275-3.142-2.635-4.16a8.315,8.315,0,0,0-4.711-1.572,4.167,4.167,0,0,0-3.993,4.032,3.97,3.97,0,0,0,1.189,3.017,12,12,0,0,0,4.246,2.632c2.89,1.231,5.1,2.294,6.457,3.609a6.98,6.98,0,0,1,2.42,5.564,7.262,7.262,0,0,1-3.992,6.581,19.091,19.091,0,0,1-7.433,1.657,22.434,22.434,0,0,1-5.137-.637,1.271,1.271,0,0,0-.806,0,2.4,2.4,0,0,0-.722.637,1.327,1.327,0,0,1-.85.254Z" transform="translate(-90.368 -310.766)" fill="#fff"/>
    </g>
    <g id="Group_10" data-name="Group 10" transform="translate(163.908 227.303)">
      <g id="Group_6" data-name="Group 6" transform="translate(86.654 47.175)">
        <g id="Group_5" data-name="Group 5">
          <path id="Path_30" data-name="Path 30" d="M225.24,263.321c0-.215-.057-.313-.314-.293-.548.039-1.059.116-1.7.116a1.077,1.077,0,0,1-.334-.529c0-.079,0-.1.157-.137a35.693,35.693,0,0,0,4.352-1.509.4.4,0,0,1,.156-.021c.1,0,.2.041.2.158v7.721c0,2.979.038,3.294.116,3.49.06.195.2.273,2.51.47-.02.569-.119.707-.273.707h-2.824c-1.412,0-2.487.118-4.529.118-.177,0-.234-.021-.216-.118.1-.373.14-.53.237-.55.393-.1,1.314-.157,2-.275.275-.038.315-.177.352-.372a29.326,29.326,0,0,0,.178-3.94Z" transform="translate(-222.531 -260.949)" fill="#fff"/>
          <path id="Path_31" data-name="Path 31" d="M234.68,260.949c2.236,0,3.627,1.294,3.6,3.138a1.925,1.925,0,0,1-.763,1.352,16.3,16.3,0,0,1-1.353,1.234c1.727.96,2.608,1.785,2.608,3.41a3.442,3.442,0,0,1-1.528,2.785,5.732,5.732,0,0,1-2.881.96,4.853,4.853,0,0,1-2.979-.862,3.1,3.1,0,0,1-1.237-2.45,2.054,2.054,0,0,1,.55-1.373c.257-.275,1.255-1,1.922-1.528-1.275-.843-1.96-1.706-1.96-2.961a3.064,3.064,0,0,1,.841-2.253,5.861,5.861,0,0,1,1.626-1.1,3.678,3.678,0,0,1,1.531-.353Zm.157,11.957a1.629,1.629,0,0,0,1.844-1.783,2.373,2.373,0,0,0-.726-1.685,5.652,5.652,0,0,0-1.94-1.235,1.29,1.29,0,0,0-.9,0,2.1,2.1,0,0,0-.823,1.823,2.764,2.764,0,0,0,2.527,2.881Zm-.509-11.114a1.623,1.623,0,0,0-1.137.452,1.728,1.728,0,0,0-.531,1.333c0,1.314.941,1.9,1.9,2.332a2.662,2.662,0,0,0,.942.294,1.863,1.863,0,0,0,.843-1.725,2.773,2.773,0,0,0-.648-2.058,1.689,1.689,0,0,0-1.353-.628Z" transform="translate(-219.467 -260.949)" fill="#fff"/>
          <path id="Path_32" data-name="Path 32" d="M238.412,273a10.1,10.1,0,0,0,1.1.039,4.873,4.873,0,0,0,3.665-1.43,2.681,2.681,0,0,0,.666-1.785,1.771,1.771,0,0,0-.529-1.352,2.32,2.32,0,0,0-1.706-.53,5.85,5.85,0,0,0-1.666.255c-.1,0-.254-.255-.234-.314a2.317,2.317,0,0,1,.823-.921,8.222,8.222,0,0,0,2.274-1.078,1.691,1.691,0,0,0,.667-1.293c0-1.176-.687-1.842-2.158-1.842a3,3,0,0,0-2.528,1.569c-.057.077-.432-.255-.432-.353a.818.818,0,0,1,.119-.373,6.93,6.93,0,0,1,2.371-2.312,3.724,3.724,0,0,1,1.489-.335,3.525,3.525,0,0,1,2.333.8,2.755,2.755,0,0,1,.823,2.018,1.826,1.826,0,0,1-.667,1.451c-.293.236-.745.51-1.293.882-.079.06,0,.216.079.236a5.2,5.2,0,0,1,2.2,1.528,2.5,2.5,0,0,1,.509,1.647c0,1.9-1.666,3.117-2.41,3.587a6.23,6.23,0,0,1-3.6.9,3.939,3.939,0,0,1-1.884-.412c-.177-.1-.177-.177-.118-.352Z" transform="translate(-216.206 -260.949)" fill="#fff"/>
          <path id="Path_33" data-name="Path 33" d="M250.984,260.949a3.585,3.585,0,0,1,2.921,1.589,8.281,8.281,0,0,1,1.078,4.645c0,3.645-1,4.841-1.628,5.409a4.647,4.647,0,0,1-3.078,1.176,3.691,3.691,0,0,1-3.058-1.587,8.446,8.446,0,0,1-1.136-4.626,7.934,7.934,0,0,1,1.41-5.077,4.379,4.379,0,0,1,2.137-1.352,4.813,4.813,0,0,1,1.333-.178Zm-.569.843a1.255,1.255,0,0,0-.9.414c-.313.313-.883,1.666-.883,4.37,0,3.528.513,4.9.942,5.547a1.492,1.492,0,0,0,1.235.764,1.219,1.219,0,0,0,.823-.332c.411-.373.824-1.9.844-4.588,0-2.646-.237-4.665-.941-5.663a1.312,1.312,0,0,0-1.1-.512Z" transform="translate(-213.06 -260.949)" fill="#fff"/>
        </g>
      </g>
      <path id="Path_34" data-name="Path 34" d="M229.781,239.458h0c-.007-2.872-.323-5.7-2.67-8.058h0a.939.939,0,0,1,0-1.328h0a.938.938,0,0,1,1.328,0h0a12.845,12.845,0,0,1,3.682,9.384h0a26.86,26.86,0,0,1-3.406,12.015h0a15.059,15.059,0,0,0,15.032,14.8h0a15.057,15.057,0,0,0,15.035-14.795h0a26.467,26.467,0,0,1-3.441-11.984h0a12.882,12.882,0,0,1,3.72-9.418h0a.941.941,0,0,1,1.331,0h0a.943.943,0,0,1,0,1.328h0c-2.378,2.382-2.7,5.223-2.707,8.09h0c0,5.27,5.757,11.74,5.757,11.74,0,9.344-10.347,17.146-19.691,17.148h0c-9.337,0-19.69-7.8-19.691-17.148C224.056,251.232,229.781,243.91,229.781,239.458Z" transform="translate(-135.264 -226.3)" fill="#fff"/>
      <path id="Path_35" data-name="Path 35" d="M232.35,239.43a.939.939,0,0,1-.941-.938h0a.941.941,0,0,1,.941-.939h0s5.415-.464,8.5-.464,8.39.464,8.39.464a.939.939,0,0,1,.939.939h0a.938.938,0,0,1-.939.938h0s-5.472.463-8.445.463-8.443-.463-8.443-.463Z" transform="translate(-132.307 -223.368)" fill="#fff"/>
      <g id="Group_7" data-name="Group 7" transform="translate(102.825 18.794)">
        <path id="Path_36" data-name="Path 36" d="M234.064,255.685V241.646a.938.938,0,0,1,.939-.938h0a.937.937,0,0,1,.939.938h0v14.039a.939.939,0,0,1-.939.939h0a.939.939,0,0,1-.939-.939Z" transform="translate(-234.064 -240.707)" fill="#fff"/>
        <path id="Path_37" data-name="Path 37" d="M237.432,257.87V241.646a.937.937,0,0,1,.937-.939h0a.939.939,0,0,1,.939.939h0V257.87a.94.94,0,0,1-.939.938h0a.938.938,0,0,1-.937-.938Z" transform="translate(-232.71 -240.707)" fill="#fff"/>
        <path id="Path_38" data-name="Path 38" d="M240.8,255.685V241.647a.938.938,0,0,1,.938-.939h0a.941.941,0,0,1,.941.939h0v14.038a.941.941,0,0,1-.941.939h0a.938.938,0,0,1-.938-.939Z" transform="translate(-231.355 -240.707)" fill="#fff"/>
      </g>
      <g id="Group_8" data-name="Group 8" transform="translate(100.51)">
        <path id="Path_39" data-name="Path 39" d="M234.728,237.49v-3.756h0a4.157,4.157,0,0,0-1.617-2.936h0c-.186-.154-.279-.219-.279-.219h0a.934.934,0,0,1-.261-1.3h0a.938.938,0,0,1,1.3-.261h0a6.231,6.231,0,0,1,2.73,4.715h0v3.756h0a.942.942,0,0,1-.941.939h0a.939.939,0,0,1-.939-.939Z" transform="translate(-232.413 -226.677)" fill="#fff"/>
        <path id="Path_40" data-name="Path 40" d="M237.432,238.116v-9.874a.938.938,0,0,1,.937-.939h0a.94.94,0,0,1,.939.939h0v9.874a.939.939,0,0,1-.939.939h0a.937.937,0,0,1-.937-.939Z" transform="translate(-230.395 -227.303)" fill="#fff"/>
        <path id="Path_41" data-name="Path 41" d="M240.8,237.49v-3.756h0a6.479,6.479,0,0,1,2.709-4.7h0a.943.943,0,0,1,1.311.219h0a.942.942,0,0,1-.219,1.31h0s-.1.07-.287.236h0a6.181,6.181,0,0,0-.693.711h0a3.6,3.6,0,0,0-.942,2.224h0v3.756h0a.938.938,0,0,1-.938.939h0a.939.939,0,0,1-.941-.939Z" transform="translate(-229.04 -226.677)" fill="#fff"/>
      </g>
      <g id="Group_9" data-name="Group 9" transform="translate(0 14.169)">
        <path id="Path_42" data-name="Path 42" d="M190,262.116a.939.939,0,0,1,.53-1.216h0s.027-.01.105-.045h0c.077-.038.195-.1.341-.178h0a6.052,6.052,0,0,0,1.066-.761h0a4.22,4.22,0,0,0,1.485-3.215h0q0-.233-.025-.488h0a.942.942,0,0,1,.848-1.025h0a.935.935,0,0,1,1.021.845h0c.022.226.035.447.035.667h0a6.111,6.111,0,0,1-2.1,4.609h0a7.452,7.452,0,0,1-2.082,1.338h0a.931.931,0,0,1-.342.066h0a.943.943,0,0,1-.876-.6Z" transform="translate(-148.984 -230.262)" fill="#fff"/>
        <path id="Path_43" data-name="Path 43" d="M188.8,259.07a.939.939,0,0,1,.259-1.3h0s.105-.067.31-.243h0a5.92,5.92,0,0,0,.759-.781h0a4.452,4.452,0,0,0,1.067-2.8h0a4.48,4.48,0,0,0-.227-1.38h0a.94.94,0,0,1,.606-1.182h0a.938.938,0,0,1,1.182.606h0a6.34,6.34,0,0,1,.317,1.956h0a6.945,6.945,0,0,1-2.97,5.392h0a.949.949,0,0,1-.523.157h0a.931.931,0,0,1-.78-.418Z" transform="translate(-149.503 -231.81)" fill="#fff"/>
        <path id="Path_44" data-name="Path 44" d="M253.236,306.955c-1.3-12.967-11.342-20.57-23.818-20.521-.248,0-.5.006-.743.01-13.216.286-24.008,9.121-28.745,24.969-.06-.99-.1-1.956-.1-2.884.021-14.82,8.173-20.524,15.817-27.462,7.592-6.867,14.855-14.927,14.868-26.522v-.2a.939.939,0,0,0-1.776-.419c-3.766,7.441-10.955,9.673-18.126,13.91-6.594,3.885-12.927,9.684-15.495,22.8a28.528,28.528,0,0,1-.555-7.222,21.584,21.584,0,0,1,2.055-9.391c5.3-11.169,17.8-14.5,27.488-19.914,4.013-2.273,7.057-5.51,7.088-9.439a7.5,7.5,0,0,0-.339-2.212,6.664,6.664,0,0,0-6.452-5.042,8.762,8.762,0,0,0-3.139.621,6.153,6.153,0,0,0-3.814,5.761,6.027,6.027,0,0,0,.405,2.186,4.959,4.959,0,0,0,6.413,2.835,4.267,4.267,0,0,0,2.984-3.9,4.108,4.108,0,0,0-.1-.923,3.117,3.117,0,0,0-2.937-2.395,3.017,3.017,0,0,0-2.18,1,.939.939,0,1,0,1.349,1.307,1.158,1.158,0,0,1,.831-.43,1.3,1.3,0,0,1,1.1.931,2.3,2.3,0,0,1,.059.51,2.4,2.4,0,0,1-1.783,2.148,3.082,3.082,0,0,1-3.985-1.76,4.172,4.172,0,0,1-.278-1.509,4.28,4.28,0,0,1,2.609-4.007,6.875,6.875,0,0,1,2.465-.5c2.234.025,3.871,1.28,4.658,3.718a5.568,5.568,0,0,1,.255,1.657c.032,2.834-2.381,5.693-6.13,7.8-9.278,5.283-23.432,7.483-29.3,19.62a23.5,23.5,0,0,0-2.242,10.2,30.639,30.639,0,0,0,3.012,12.406.939.939,0,0,0,1.753-.331c2.089-15.148,8.3-20.792,15.161-24.92,5.847-3.5,12.379-5.722,16.789-11.43-1.4,8.417-9.226,12.744-16.084,18.933-7.7,6.932-14.348,16.058-14.324,31.581a53.453,53.453,0,0,0,.6,7.759,2.456,2.456,0,0,0,.836,1.275.939.939,0,0,0,1.108-.732c3.784-18.476,14.637-25.389,28.227-25.731.236,0,.468-.008.7-.008,7.754,0,17.7,4.927,19.172,16.287.073.728.109,1.454.109,2.17,0,7.808-3.425,16.831-12.779,18.275a14.933,14.933,0,0,1-2.248.172c-7.078,0-13.3-4.7-14.411-11.914a11.315,11.315,0,0,1-.137-1.768,11.493,11.493,0,0,1,9.743-11.343,8.99,8.99,0,0,1,10.276,7.526,6.76,6.76,0,0,1,.084,1.084,7,7,0,0,1-5.944,6.922,8.584,8.584,0,0,1-.932.049,4.789,4.789,0,0,1-4.8-4.529c-.011-.121-.017-.24-.017-.355a3.99,3.99,0,0,1,.215-1.259,3.24,3.24,0,1,0,4.22-3.968c-.021-.007-.035-.022-.057-.029s-.071-.013-.108-.022a3.245,3.245,0,0,0-.96-.16c-.038,0-.073.01-.112.013s-.091-.011-.135-.011a5.242,5.242,0,0,0-4.942,5.437c0,.177.011.355.028.53a6.782,6.782,0,0,0,6.666,6.234,9.715,9.715,0,0,0,1.209-.073,8.873,8.873,0,0,0,7.546-8.779,9.267,9.267,0,0,0-.1-1.37,10.892,10.892,0,0,0-10.744-9.227,11.048,11.048,0,0,0-1.68.13,13.371,13.371,0,0,0-11.332,13.2,13.053,13.053,0,0,0,.158,2.053,16.465,16.465,0,0,0,18.8,13.776c10.341-1.6,17.16-10.646,17.149-20.825A23.125,23.125,0,0,0,253.236,306.955Z" transform="translate(-148.295 -237.409)" fill="#fff"/>
        <path id="Path_45" data-name="Path 45" d="M198.837,248.657a6.686,6.686,0,0,0-4.285-3.6.933.933,0,0,0-.791,1.666l.01.021v0a3.291,3.291,0,0,1,.638,1.926,3.684,3.684,0,0,1-.795,2.218,14.935,14.935,0,0,0-4.791-.785,10.184,10.184,0,0,0-4.543.93,3.827,3.827,0,0,0-2.292,3.427,4.438,4.438,0,0,0,.129,1.04,19.662,19.662,0,0,0-4.661,1.012c-2.364.839-4.854,2.636-4.854,5.879.007,1.876.809,4.052,2.637,6.7a.94.94,0,0,0,1.694-.346s.02-.1.087-.317a5.922,5.922,0,0,1,5.541-4.248,5.419,5.419,0,0,1,4.349,2.434,11.493,11.493,0,0,1,1.955,6.806,18.662,18.662,0,0,1-.74,5.059c-1.332,4.732-6.565,9.652-6.785,20.432-.265,12.961,9.785,19.171,13.947,21.908,0,0-.987.041-1.354.041-4.945,0-8.542-2.332-11.755-5.139s-5.893-6.064-9.147-7.633a11.267,11.267,0,0,0-4.8-1.19,7.168,7.168,0,0,0-6.329,3.588,7.774,7.774,0,0,0,2.968,10.971,5.707,5.707,0,0,0,2.806.715,6.321,6.321,0,0,0,5.482-3.19,5.03,5.03,0,0,0-4.281-7.4,3.4,3.4,0,0,0-2.7,1.279,2.958,2.958,0,0,0-.649,1.866,3.43,3.43,0,0,0,1.754,2.93.939.939,0,1,0,.953-1.618,1.55,1.55,0,0,1-.829-1.312,1.065,1.065,0,0,1,.234-.688,1.5,1.5,0,0,1,1.232-.578,3.031,3.031,0,0,1,1.436.426,3.085,3.085,0,0,1,1.2,4.188,4.461,4.461,0,0,1-3.84,2.224,3.884,3.884,0,0,1-1.893-.48,5.894,5.894,0,0,1-2.278-8.35,5.262,5.262,0,0,1,4.727-2.693c6.239,0,8.425,6.544,11.748,9.473s8.376,4.5,13.958,4.492a18.943,18.943,0,0,0,3.334-.3.939.939,0,0,0,.481-1.608c-4.056-3.817-9.21-9.983-11.14-18.568a25.521,25.521,0,0,1-.617-5.625c-.006-6.765,2.541-12.727,3.943-17.644a20.562,20.562,0,0,0,.809-5.571,13.316,13.316,0,0,0-2.319-7.918,7.3,7.3,0,0,0-5.862-3.2,7.883,7.883,0,0,0-4.575,1.587,7.384,7.384,0,0,0-2.184,2.577,8.528,8.528,0,0,1-1.321-4.073c0-2.14,1.52-3.309,3.627-4.119a19.522,19.522,0,0,1,5.15-.987c.015,0,.028.006.043.006.561-.042,1.13-.055,1.67-.055a32.969,32.969,0,0,1,3.654.208,1.137,1.137,0,0,0,.119.007.939.939,0,0,0,.116-1.87v0a35.922,35.922,0,0,0-3.889-.222c-.292,0-.607.021-.911.031a3.063,3.063,0,0,1-.2-.927c.018-.773.381-1.267,1.277-1.758a8.362,8.362,0,0,1,3.682-.718,12.778,12.778,0,0,1,4.694.876.936.936,0,0,0,1.005-.185,5.625,5.625,0,0,0,1.764-4c0-.15-.02-.3-.034-.456a5.644,5.644,0,0,1,.9,1.284,17.153,17.153,0,0,1,1.255,4.833.943.943,0,0,0,.93.792.736.736,0,0,0,.146-.013.94.94,0,0,0,.782-1.074A18.943,18.943,0,0,0,198.837,248.657Z" transform="translate(-160.728 -234.35)" fill="#fff"/>
      </g>
      <path id="Path_46" data-name="Path 46" d="M287.057,262.116a.939.939,0,0,0-.533-1.216h0s-.024-.01-.1-.045h0c-.08-.038-.2-.1-.344-.178h0a6,6,0,0,1-1.064-.761h0a4.222,4.222,0,0,1-1.488-3.215h0a4.56,4.56,0,0,1,.027-.488h0a.942.942,0,0,0-.847-1.025h0a.937.937,0,0,0-1.022.845h0c-.022.226-.034.447-.034.667h0a6.106,6.106,0,0,0,2.1,4.609h0a7.443,7.443,0,0,0,2.085,1.338h0a.907.907,0,0,0,.341.066h0a.947.947,0,0,0,.876-.6Z" transform="translate(-112.104 -216.092)" fill="#fff"/>
      <path id="Path_47" data-name="Path 47" d="M287.955,259.07a.938.938,0,0,0-.259-1.3h0s-.1-.067-.311-.243h0a6.113,6.113,0,0,1-.757-.781h0a4.453,4.453,0,0,1-1.067-2.8h0a4.439,4.439,0,0,1,.227-1.38h0a.941.941,0,0,0-.606-1.182h0a.938.938,0,0,0-1.182.606h0a6.3,6.3,0,0,0-.315,1.956h0a6.932,6.932,0,0,0,2.972,5.392h0a.928.928,0,0,0,.517.157h0a.931.931,0,0,0,.781-.418Z" transform="translate(-111.287 -217.641)" fill="#fff"/>
      <path id="Path_48" data-name="Path 48" d="M299.293,272.086c-5.864-12.137-20.019-14.336-29.3-19.62-3.749-2.11-6.162-4.969-6.129-7.8a5.565,5.565,0,0,1,.254-1.657c.787-2.438,2.426-3.693,4.658-3.718a6.869,6.869,0,0,1,2.465.5,4.281,4.281,0,0,1,2.611,4.007,4.2,4.2,0,0,1-.278,1.509,3.082,3.082,0,0,1-3.985,1.76,2.192,2.192,0,0,1-1.726-2.658,1.3,1.3,0,0,1,1.106-.931,1.154,1.154,0,0,1,.829.43.94.94,0,0,0,1.35-1.307,3.016,3.016,0,0,0-2.179-1,3.119,3.119,0,0,0-2.939,2.395,4.194,4.194,0,0,0-.105.923,4.271,4.271,0,0,0,2.984,3.9,5,5,0,0,0,1.791.334,4.95,4.95,0,0,0,4.623-3.169,5.94,5.94,0,0,0,.407-2.186,6.148,6.148,0,0,0-3.814-5.761,8.762,8.762,0,0,0-3.139-.621,6.663,6.663,0,0,0-6.451,5.042,7.461,7.461,0,0,0-.341,2.212c.031,3.929,3.075,7.166,7.086,9.439,9.694,5.418,22.188,8.745,27.49,19.914a21.606,21.606,0,0,1,2.057,9.391,28.464,28.464,0,0,1-.555,7.222c-2.569-13.115-8.9-18.914-15.5-22.8-7.172-4.237-14.36-6.469-18.125-13.91a.939.939,0,0,0-1.776.419v.2c.013,11.6,7.278,19.655,14.868,26.522,7.646,6.938,15.8,12.641,15.817,27.462,0,.928-.038,1.894-.1,2.883-4.735-15.847-15.528-24.681-28.745-24.967-.25,0-.5-.01-.746-.01-12.473-.049-22.518,7.555-23.818,20.521a23.52,23.52,0,0,0-.119,2.361c-.011,10.179,6.809,19.228,17.151,20.825a16.465,16.465,0,0,0,18.8-13.776,13.569,13.569,0,0,0,.158-2.053,13.372,13.372,0,0,0-11.335-13.2,11,11,0,0,0-1.678-.13,10.887,10.887,0,0,0-10.742,9.227,8.733,8.733,0,0,0-.105,1.37,8.872,8.872,0,0,0,7.545,8.779,9.736,9.736,0,0,0,1.21.073A6.782,6.782,0,0,0,267.5,314.2c.015-.175.027-.353.027-.53a5.237,5.237,0,0,0-4.941-5.437c-.045,0-.091.008-.136.011s-.073-.013-.111-.013a3.233,3.233,0,0,0-.958.16c-.038.008-.074.013-.112.022-.022.007-.038.022-.059.029a3.242,3.242,0,1,0,4.223,3.971,3.921,3.921,0,0,1,.215,1.256,3.078,3.078,0,0,1-.018.355,4.787,4.787,0,0,1-4.794,4.529,8.584,8.584,0,0,1-.932-.049,7,7,0,0,1-5.943-6.922,6.754,6.754,0,0,1,.083-1.084,8.988,8.988,0,0,1,10.275-7.526,11.481,11.481,0,0,1,9.609,13.111c-1.112,7.214-7.336,11.914-14.412,11.914a14.915,14.915,0,0,1-2.246-.172c-9.356-1.444-12.782-10.467-12.782-18.275a21,21,0,0,1,.112-2.17c1.468-11.36,11.416-16.287,19.17-16.287.233,0,.463,0,.7.008,13.591.342,24.441,7.256,28.226,25.731a.937.937,0,0,0,1.106.732.925.925,0,0,0,.735-.967.914.914,0,0,0,.1-.307,53.453,53.453,0,0,0,.6-7.759c.021-15.523-6.629-24.649-14.324-31.581-6.861-6.189-14.686-10.516-16.086-18.933,4.412,5.708,10.945,7.926,16.789,11.43,6.859,4.128,13.072,9.771,15.164,24.92a.938.938,0,0,0,1.751.331,30.592,30.592,0,0,0,3.012-12.406A23.445,23.445,0,0,0,299.293,272.086Z" transform="translate(-128.922 -223.239)" fill="#fff"/>
      <path id="Path_49" data-name="Path 49" d="M324.93,310.478a7.162,7.162,0,0,0-6.326-3.588,11.284,11.284,0,0,0-4.806,1.19c-3.253,1.569-5.931,4.836-9.146,7.633s-6.81,5.137-11.755,5.139c-.366,0-1.356-.041-1.356-.041,4.161-2.737,14.213-8.947,13.95-21.908-.222-10.779-5.454-15.7-6.786-20.432a18.606,18.606,0,0,1-.74-5.059,11.492,11.492,0,0,1,1.955-6.806,5.423,5.423,0,0,1,4.349-2.434,5.925,5.925,0,0,1,5.544,4.248c.064.217.086.317.086.317a.938.938,0,0,0,1.691.346c1.83-2.647,2.632-4.823,2.639-6.7,0-3.243-2.489-5.041-4.854-5.879a19.653,19.653,0,0,0-4.659-1.012,4.514,4.514,0,0,0,.129-1.04,3.83,3.83,0,0,0-2.294-3.427,10.185,10.185,0,0,0-4.541-.93,14.916,14.916,0,0,0-4.791.785,3.694,3.694,0,0,1-.8-2.218,3.291,3.291,0,0,1,.638-1.926v0l.01-.021a.933.933,0,0,0-.791-1.666,6.686,6.686,0,0,0-4.285,3.6,18.94,18.94,0,0,0-1.432,5.374.939.939,0,0,0,.784,1.074.727.727,0,0,0,.146.013.941.941,0,0,0,.927-.792,17.245,17.245,0,0,1,1.256-4.833,5.57,5.57,0,0,1,.9-1.286c-.014.153-.035.306-.035.457a5.623,5.623,0,0,0,1.762,4,.94.94,0,0,0,1.007.185,12.78,12.78,0,0,1,4.7-.876,8.355,8.355,0,0,1,3.681.718c.895.491,1.259.986,1.276,1.758a3.092,3.092,0,0,1-.194.927c-.307-.01-.623-.031-.914-.031a35.98,35.98,0,0,0-3.888.222v0a.939.939,0,0,0,.115,1.87,1.093,1.093,0,0,0,.119-.007,33.034,33.034,0,0,1,3.654-.208c.541,0,1.109.013,1.671.055.015,0,.028-.007.043-.006a19.512,19.512,0,0,1,5.15.987c2.107.81,3.624,1.98,3.626,4.119a8.523,8.523,0,0,1-1.319,4.073,7.369,7.369,0,0,0-2.184-2.577,7.88,7.88,0,0,0-4.575-1.587,7.3,7.3,0,0,0-5.862,3.2,13.316,13.316,0,0,0-2.318,7.918,20.509,20.509,0,0,0,.809,5.571c1.4,4.917,3.947,10.879,3.941,17.644a25.438,25.438,0,0,1-.617,5.625c-1.929,8.585-7.083,14.751-11.14,18.568a.939.939,0,0,0,.479,1.608,18.97,18.97,0,0,0,3.336.3c5.583,0,10.636-1.572,13.957-4.492s5.51-9.473,11.751-9.473a5.26,5.26,0,0,1,4.725,2.693,5.894,5.894,0,0,1-2.278,8.35,3.881,3.881,0,0,1-1.89.48,4.46,4.46,0,0,1-3.843-2.224,3.081,3.081,0,0,1,1.2-4.188,3.031,3.031,0,0,1,1.436-.426,1.5,1.5,0,0,1,1.234.578,1.072,1.072,0,0,1,.233.688,1.544,1.544,0,0,1-.829,1.312.939.939,0,1,0,.952,1.618,3.424,3.424,0,0,0,1.754-2.93,2.934,2.934,0,0,0-.649-1.866,3.4,3.4,0,0,0-2.695-1.279,4.882,4.882,0,0,0-2.347.663,4.955,4.955,0,0,0-1.934,6.74,6.321,6.321,0,0,0,5.485,3.19,5.7,5.7,0,0,0,2.8-.715,7.764,7.764,0,0,0,2.967-10.971Z" transform="translate(-110.135 -220.181)" fill="#fff"/>
    </g>
  </g>
</svg>
